<svg width="128" height="115" viewBox="0 0 128 115" fill="none" xmlns="http://www.w3.org/2000/svg">
<path d="M63.1817 104.551C59.713 103.682 56.2914 102.755 52.8389 101.821C49.5103 100.918 46.2126 100.022 42.8987 99.1913C40.0803 98.4849 37.2538 97.8108 34.4338 97.2419L33.9073 97.1099C33.9073 97.1099 32.0734 96.5468 31.2763 96.3125C21.6032 93.4051 12.6487 90.1263 9.00001 82.4891C7.3013 78.8917 7.10666 74.8093 8.47027 70.9453L8.81523 69.963L9.36887 69.0676C17.0284 56.3703 35.9066 58.9306 59.8629 63.5567C63.5044 64.2626 66.96 64.922 68.7594 65.0972L69.2712 65.1566L70.6649 65.5059L70.9518 65.5433C71.819 65.7607 72.7791 66.0014 73.8012 66.2576L76.2169 66.8631C86.8401 69.526 104.618 73.9822 107.889 88.9024L108.17 90.145L108.14 91.4474C107.989 95.8569 106.063 99.9937 102.69 103.078C98.1155 107.275 91.4473 109.189 83.8617 108.46C77.619 107.757 71.3125 106.521 63.229 104.494L63.1817 104.551Z" fill="#F5E8D7" stroke="#F5E8D7" stroke-width="4" stroke-miterlimit="10"/>
<path d="M42.6558 79.4107L37.9482 78.2306C36.9261 77.9744 36.1519 77.7803 35.4085 77.594C29.5012 76.0787 22.1772 74.1739 17.5685 66.2961C14.8226 61.2295 14.8227 55.7136 17.4244 50.8499C20.7637 44.6196 27.7354 40.5755 36.119 40.0914L36.6471 40.0859C48.6981 40.0729 65.2937 43.9915 70.0942 45.1949L72.2312 45.7305L72.8507 45.8858C73.1913 45.9712 105.601 55.6122 108.78 71.8192C109.867 77.3318 107.874 82.6583 103.296 86.4752L102.92 86.7945L102.521 87.0737C95.7449 91.6496 86.7586 89.8107 77.2457 87.8399L74.2709 87.2321C67.8192 85.7872 61.5859 84.2592 56.8472 83.0714L42.6624 79.5157L42.6558 79.4107Z" fill="#F5E8D7" stroke="#F5E8D7" stroke-width="4" stroke-miterlimit="10"/>
<path d="M64.7236 63.6028C39.2652 57.2213 29.1601 51.3097 27.45 41.8487C26.9823 39.2493 26.6689 32.6206 33.837 27.0054L34.9415 26.1446L36.2207 25.6378C48.264 20.7965 61.7327 23.1384 72.5591 24.9904L75.3953 25.4945L76.5722 25.7895L78.1436 26.2178C88.5681 29.2791 102.863 33.4483 110.122 45.1967L110.709 46.1368L111.07 47.1925C114.085 55.912 111.003 61.3793 108.925 63.8921C102.903 71.1048 92.6121 70.0075 83.3714 68.0014L82.9998 67.9083C82.9998 67.9083 82.0706 67.6754 81.668 67.5744C80.3982 67.2561 78.6247 66.846 76.5024 66.383C73.2032 65.6249 69.0906 64.6975 64.7546 63.6106L64.7236 63.6028Z" fill="#F5E8D7" stroke="#F5E8D7" stroke-width="4" stroke-miterlimit="10"/>
<path d="M28.455 38.1015C24.6455 37.1466 21.236 34.4647 19.1428 30.7339C17.0643 27.0757 16.467 22.8925 17.4818 18.9754L18.0072 17.1421L18.4989 16.2311C21.7599 10.0502 27.7805 7.04318 33.8818 8.57259C38.8062 9.80698 42.8994 13.8323 44.5404 19.1045C46.0769 24.0058 45.1704 29.329 42.0744 33.276L41.8219 33.6264L41.5467 33.9366C38.0642 37.7177 33.1936 39.2893 28.455 38.1015Z" fill="#F5E8D7" stroke="#F5E8D7" stroke-width="4" stroke-miterlimit="10"/>
<path d="M43.2702 32.5759C39.9253 31.7374 36.9544 29.4069 35.2282 26.1818C33.4858 23.0215 33.0859 19.2325 34.0488 15.7851L34.4832 14.446L35.0709 13.2833C38.0586 7.93025 43.4845 5.32576 48.9045 6.68437C53.1476 7.74796 56.6651 11.1808 58.0122 15.6554C59.3609 19.9926 58.446 24.6931 55.6415 28.2649L55.3972 28.5829L55.13 28.8607C51.9782 32.2421 47.5524 33.6148 43.3093 32.5512L43.2702 32.5759Z" fill="#F5E8D7" stroke="#F5E8D7" stroke-width="4" stroke-miterlimit="10"/>
<path d="M106.537 52.5374C102.944 51.6369 99.9831 49.1364 98.4149 45.675C96.801 42.1333 96.8475 38.008 98.4736 34.2787L99.1492 32.8967L99.615 32.2205C103.333 26.8436 109.029 24.3414 114.449 25.7C118.692 26.7636 122.063 30.1252 123.241 34.4884C124.508 39.1499 123.201 44.2346 119.764 48.0962L119.575 48.3246L119.355 48.5453C115.672 52.2072 110.997 53.6554 106.537 52.5374Z" fill="#F5E8D7" stroke="#F5E8D7" stroke-width="4" stroke-miterlimit="10"/>
<path d="M67.6068 75.0817C57.78 74.1008 23.5169 64.2366 17.4482 74.2644C14.7616 81.8304 30.7997 85.6093 36.4318 87.4347C52.5071 90.6714 68.3883 96.6518 84.898 98.5494C93.0965 99.3289 98.3393 95.7477 98.4819 91.3707C96.186 80.8321 76.9651 77.6688 68.2262 75.2369L67.6068 75.0817Z" fill="#603813" stroke="black" stroke-width="4" stroke-miterlimit="10"/>
<path d="M69.344 55.2804C60.3867 52.9317 46.0164 49.9846 36.4265 50.0284C28.2059 50.5189 23.1044 56.0316 25.7671 60.9049C28.8145 66.0815 34.2341 66.785 40.3258 68.4844C52.2041 71.3929 64.265 74.6231 76.2622 77.3201C84.9469 79.0489 93.5097 81.2642 97.3905 78.6517C107.745 70.0429 75.9196 56.7563 69.9472 55.5005L69.3278 55.3453L69.344 55.2804Z" fill="#C49A6C" stroke="black" stroke-width="4" stroke-miterlimit="10"/>
<path d="M73.2965 35.3106C62.9738 33.5504 49.883 30.7516 39.4463 34.9614C24.3738 46.7658 78.1489 56.005 85.4306 58.2095C94.4545 60.1613 105.6 61.2658 101.953 50.7332C96.3329 41.6366 83.4586 38.2371 73.9469 35.4736L73.2965 35.3106Z" fill="#E8C79B" stroke="black" stroke-width="4" stroke-miterlimit="10"/>
<path d="M26.7344 21.3294C25.6449 25.6758 31.0427 31.0624 34.6668 27.11C38.512 22.1442 30.5456 13.8729 26.8792 20.883L26.7654 21.3371L26.7344 21.3294Z" fill="#F5E8D7" stroke="black" stroke-width="4" stroke-miterlimit="10"/>
<path d="M43.2505 18.471C42.4503 21.2697 45.8601 24.6066 48.2659 21.969C50.8571 18.7229 45.8832 13.615 43.3319 18.1466L43.2587 18.4386L43.2505 18.471Z" fill="#F5E8D7" stroke="black" stroke-width="4" stroke-miterlimit="10"/>
<path d="M107.202 38.328C105.696 41.7084 109.326 44.8246 112.797 41.3509C116.595 37.0974 111.331 32.227 107.361 37.9543L107.171 38.3203L107.202 38.328Z" fill="#F5E8D7" stroke="black" stroke-width="4" stroke-miterlimit="10"/>
</svg>
