<svg width="34" height="34" viewBox="0 0 34 34" fill="none" xmlns="http://www.w3.org/2000/svg">
<path d="M0.712746 15.7961C-0.931544 16.9611 1.28756 17.9143 6.64302 18.4157C21.2094 19.6265 32.4843 19.4014 33.3636 17.7635C34.0115 16.5817 32.4435 15.4027 29.266 14.6656C27.3653 14.2583 21.4617 14.1452 15.0005 14.3622C2.45998 14.7937 2.01329 14.8666 0.712746 15.7961Z" fill="#402818"/>
<path d="M17.716 0.716599C16.5316 -0.913725 15.6048 1.31655 15.1671 6.6776C14.1296 21.2573 14.4887 32.5288 16.137 33.3885C17.3264 34.0224 18.4866 32.4404 19.1859 29.2544C19.5706 27.3489 19.6135 21.4445 19.3197 14.9863C18.7391 2.4518 18.6609 2.006 17.716 0.716599Z" fill="#402818"/>
</svg>
